<?xml version="1.0" encoding="UTF-8"?>
<svg xmlns="http://www.w3.org/2000/svg" style="margin:auto;background:#f1f2f3;display:block;" width="280" height="250" preserveAspectRatio="xMidYMid">
<style type="text/css">
  text {
    text-anchor: middle; font-size: 80px; opacity: 0;
  }
</style>
<g style="transform-origin:140px 125px;transform:scale(1)">
<g transform="translate(140,125)">
  <g transform="translate(0,0)"><g class="path" style="transform: matrix(1, 0, 0, 1, 0, 0); transform-origin: -1.63425px -10.5619px; animation: 1s linear 0s infinite normal forwards running flip-ddaaddc7-88ce-4a72-8373-9fcee691cb23;"><path d="M40.96-6.80L40.96-6.80L40.96-6.80Q38.56-7.36 37-8.68L37-8.68L37-8.68Q35.44-10 34.64-11.76L34.64-11.76L34.64-11.76Q33.84-13.52 33.68-15.64L33.68-15.64L33.68-15.64Q33.52-17.76 33.84-19.92L33.84-19.92L33.84-19.92Q31.76-17.60 29.88-15.36L29.88-15.36L29.88-15.36Q28-13.12 26.56-11.40L26.56-11.40L26.56-11.40Q25.12-9.68 24.12-8.56L24.12-8.56L24.12-8.56Q23.12-7.44 22.80-7.36L22.80-7.36L22.80-7.36Q22.16-6.96 20.76-6.80L20.76-6.80L20.76-6.80Q19.36-6.64 18.96-6.64L18.96-6.64L18.96-6.64Q16.96-6.48 16.04-7.92L16.04-7.92L16.04-7.92Q15.12-9.36 14.96-11.60L14.96-11.60L14.96-11.60Q14.72-13.68 15.20-16.44L15.20-16.44L15.20-16.44Q15.68-19.20 16.56-22.24L16.56-22.24L16.56-22.24Q14.80-19.68 13.12-17.08L13.12-17.08L13.12-17.08Q11.44-14.48 10-12.36L10-12.36L10-12.36Q8.56-10.24 7.60-8.84L7.60-8.84L7.60-8.84Q6.64-7.44 6.32-7.36L6.32-7.36L6.32-7.36Q5.68-6.96 4.28-6.80L4.28-6.80L4.28-6.80Q2.88-6.64 2.48-6.64L2.48-6.64L2.48-6.64Q0.48-6.48-0.44-7.92L-0.44-7.92L-0.44-7.92Q-1.36-9.36-1.52-11.60L-1.52-11.60L-1.52-11.60Q-1.92-15.92-0.92-20.48L-0.92-20.48L-0.92-20.48Q0.08-25.04 1.92-29.12L1.92-29.12L1.92-29.12Q2.80-31.28 4.40-32.88L4.40-32.88L4.40-32.88Q6-34.48 7.84-34.48L7.84-34.48L7.84-34.48Q9.12-34.48 10.72-33.76L10.72-33.76L10.72-33.76Q12.32-33.04 13.20-31.84L13.20-31.84L13.20-31.84Q13.68-31.04 13.04-29.60L13.04-29.60L13.04-29.60Q12-27.28 11.08-25L11.08-25L11.08-25Q10.16-22.72 9.36-20.40L9.36-20.40L9.36-20.40Q11.36-23.28 13.76-26.36L13.76-26.36L13.76-26.36Q16.16-29.44 18.36-32.04L18.36-32.04L18.36-32.04Q20.56-34.64 22.44-36.48L22.44-36.48L22.44-36.48Q24.32-38.32 25.28-38.80L25.28-38.80L25.28-38.80Q26.40-39.44 27.44-39.44L27.44-39.44L27.44-39.44Q28.72-39.44 30.32-38.72L30.32-38.72L30.32-38.72Q31.92-38 32.80-36.80L32.80-36.80L32.80-36.80Q33.44-35.92 32.64-34.56L32.64-34.56L32.64-34.56Q30.88-31.36 29.08-27.40L29.08-27.40L29.08-27.40Q27.28-23.44 25.84-19.12L25.84-19.12L25.84-19.12Q27.84-21.52 30.04-24L30.04-24L30.04-24Q32.24-26.48 34.24-28.56L34.24-28.56L34.24-28.56Q36.24-30.64 37.92-32.12L37.92-32.12L37.92-32.12Q39.60-33.60 40.56-34L40.56-34L40.56-34Q41.36-34.48 42.48-34.48L42.48-34.48L42.48-34.48Q43.76-34.48 45.36-33.76L45.36-33.76L45.36-33.76Q46.96-33.04 47.84-31.84L47.84-31.84L47.84-31.84Q48.24-31.20 47.68-29.60L47.68-29.60L47.68-29.60Q46.80-27.20 45.76-24.80L45.76-24.80L45.76-24.80Q44.72-22.40 43.76-19.68L43.76-19.68L43.76-19.68Q42.88-17.12 42.64-15.16L42.64-15.16L42.64-15.16Q42.40-13.20 43.60-12.80L43.60-12.80L43.60-12.80Q44.80-12.32 46.08-13.64L46.08-13.64L46.08-13.64Q47.36-14.96 48.56-16.92L48.56-16.92L48.56-16.92Q49.76-18.88 50.72-20.92L50.72-20.92L50.72-20.92Q51.68-22.96 52.16-23.92L52.16-23.92L52.16-23.92Q53.92-23.76 54.96-23.20L54.96-23.20L54.96-23.20Q55.92-22.72 56.56-21.72L56.56-21.72L56.56-21.72Q57.20-20.72 56.72-19.04L56.72-19.04L56.72-19.04Q55.52-14.96 53.64-12.44L53.64-12.44L53.64-12.44Q51.76-9.92 49.60-8.56L49.60-8.56L49.60-8.56Q47.44-7.20 45.16-6.84L45.16-6.84L45.16-6.84Q42.88-6.48 40.96-6.80" fill="#311847" stroke="none" stroke-width="none" transform="translate(-29.27996826171875,12.470083618164063)" style="fill: rgb(49, 24, 71);"></path></g></g>
</g>
</g>
</svg>